<mxfile host="app.diagrams.net" modified="2023-06-13T09:06:18.987Z" agent="Mozilla/5.0 (Windows NT 10.0; Win64; x64) AppleWebKit/537.36 (KHTML, like Gecko) Chrome/114.0.0.0 Safari/537.36" etag="FdIm9XijZ_Q0zcLuNY2A" version="21.3.8" type="github">
  <diagram name="Page-1" id="0783ab3e-0a74-02c8-0abd-f7b4e66b4bec">
    <mxGraphModel dx="1674" dy="834" grid="1" gridSize="10" guides="1" tooltips="1" connect="1" arrows="1" fold="1" page="1" pageScale="1" pageWidth="1100" pageHeight="850" background="none" math="0" shadow="0">
      <root>
        <mxCell id="0" />
        <mxCell id="1" parent="0" />
        <mxCell id="ShEfWIWbOcaYMvMY--nj-66" value="IOT FLOW DATA" style="text;align=center;fontStyle=1;verticalAlign=middle;spacingLeft=3;spacingRight=3;strokeColor=none;rotatable=0;points=[[0,0.5],[1,0.5]];portConstraint=eastwest;html=1;" vertex="1" parent="1">
          <mxGeometry x="385" y="20" width="80" height="26" as="geometry" />
        </mxCell>
        <mxCell id="ShEfWIWbOcaYMvMY--nj-67" value="Dashboard" style="shape=umlFrame;whiteSpace=wrap;html=1;pointerEvents=0;width=70;height=40;" vertex="1" parent="1">
          <mxGeometry x="430" y="480" width="300" height="200" as="geometry" />
        </mxCell>
        <mxCell id="ShEfWIWbOcaYMvMY--nj-73" value="" style="group" vertex="1" connectable="0" parent="1">
          <mxGeometry x="420" y="140" width="550" height="200" as="geometry" />
        </mxCell>
        <mxCell id="ShEfWIWbOcaYMvMY--nj-51" value="SERVER" style="shape=umlFrame;whiteSpace=wrap;html=1;pointerEvents=0;movable=1;resizable=1;rotatable=1;deletable=1;editable=1;locked=0;connectable=1;" vertex="1" parent="ShEfWIWbOcaYMvMY--nj-73">
          <mxGeometry width="550" height="200" as="geometry" />
        </mxCell>
        <mxCell id="ShEfWIWbOcaYMvMY--nj-53" value="Pooling Database" style="swimlane;fontStyle=1;align=center;verticalAlign=top;childLayout=stackLayout;horizontal=1;startSize=26;horizontalStack=0;resizeParent=1;resizeParentMax=0;resizeLast=0;collapsible=1;marginBottom=0;whiteSpace=wrap;html=1;movable=1;resizable=1;rotatable=1;deletable=1;editable=1;locked=0;connectable=1;" vertex="1" parent="ShEfWIWbOcaYMvMY--nj-73">
          <mxGeometry x="360" y="40" width="160" height="112" as="geometry" />
        </mxCell>
        <mxCell id="ShEfWIWbOcaYMvMY--nj-54" value="Database MySQL" style="text;strokeColor=none;fillColor=none;align=left;verticalAlign=top;spacingLeft=4;spacingRight=4;overflow=hidden;rotatable=1;points=[[0,0.5],[1,0.5]];portConstraint=eastwest;whiteSpace=wrap;html=1;movable=1;resizable=1;deletable=1;editable=1;locked=0;connectable=1;" vertex="1" parent="ShEfWIWbOcaYMvMY--nj-53">
          <mxGeometry y="26" width="160" height="26" as="geometry" />
        </mxCell>
        <mxCell id="ShEfWIWbOcaYMvMY--nj-57" value="+ field: type" style="text;strokeColor=none;fillColor=none;align=left;verticalAlign=top;spacingLeft=4;spacingRight=4;overflow=hidden;rotatable=1;points=[[0,0.5],[1,0.5]];portConstraint=eastwest;whiteSpace=wrap;html=1;movable=1;resizable=1;deletable=1;editable=1;locked=0;connectable=1;" vertex="1" parent="ShEfWIWbOcaYMvMY--nj-53">
          <mxGeometry y="52" width="160" height="26" as="geometry" />
        </mxCell>
        <mxCell id="ShEfWIWbOcaYMvMY--nj-55" value="" style="line;strokeWidth=1;fillColor=none;align=left;verticalAlign=middle;spacingTop=-1;spacingLeft=3;spacingRight=3;rotatable=1;labelPosition=right;points=[];portConstraint=eastwest;strokeColor=inherit;movable=1;resizable=1;deletable=1;editable=1;locked=0;connectable=1;" vertex="1" parent="ShEfWIWbOcaYMvMY--nj-53">
          <mxGeometry y="78" width="160" height="8" as="geometry" />
        </mxCell>
        <mxCell id="ShEfWIWbOcaYMvMY--nj-56" value="+ method(type): type" style="text;strokeColor=none;fillColor=none;align=left;verticalAlign=top;spacingLeft=4;spacingRight=4;overflow=hidden;rotatable=1;points=[[0,0.5],[1,0.5]];portConstraint=eastwest;whiteSpace=wrap;html=1;movable=1;resizable=1;deletable=1;editable=1;locked=0;connectable=1;" vertex="1" parent="ShEfWIWbOcaYMvMY--nj-53">
          <mxGeometry y="86" width="160" height="26" as="geometry" />
        </mxCell>
        <mxCell id="ShEfWIWbOcaYMvMY--nj-68" value="Main Server" style="swimlane;fontStyle=1;align=center;verticalAlign=top;childLayout=stackLayout;horizontal=1;startSize=26;horizontalStack=0;resizeParent=1;resizeParentMax=0;resizeLast=0;collapsible=1;marginBottom=0;whiteSpace=wrap;html=1;movable=1;resizable=1;rotatable=1;deletable=1;editable=1;locked=0;connectable=1;" vertex="1" parent="ShEfWIWbOcaYMvMY--nj-73">
          <mxGeometry x="20" y="40" width="160" height="112" as="geometry" />
        </mxCell>
        <mxCell id="ShEfWIWbOcaYMvMY--nj-69" value="Process data from PLC" style="text;strokeColor=none;fillColor=none;align=left;verticalAlign=top;spacingLeft=4;spacingRight=4;overflow=hidden;rotatable=1;points=[[0,0.5],[1,0.5]];portConstraint=eastwest;whiteSpace=wrap;html=1;movable=1;resizable=1;deletable=1;editable=1;locked=0;connectable=1;" vertex="1" parent="ShEfWIWbOcaYMvMY--nj-68">
          <mxGeometry y="26" width="160" height="26" as="geometry" />
        </mxCell>
        <mxCell id="ShEfWIWbOcaYMvMY--nj-72" value="Transfer rate 27 ms" style="text;strokeColor=none;fillColor=none;align=left;verticalAlign=top;spacingLeft=4;spacingRight=4;overflow=hidden;rotatable=1;points=[[0,0.5],[1,0.5]];portConstraint=eastwest;whiteSpace=wrap;html=1;movable=1;resizable=1;deletable=1;editable=1;locked=0;connectable=1;" vertex="1" parent="ShEfWIWbOcaYMvMY--nj-68">
          <mxGeometry y="52" width="160" height="26" as="geometry" />
        </mxCell>
        <mxCell id="ShEfWIWbOcaYMvMY--nj-70" value="" style="line;strokeWidth=1;fillColor=none;align=left;verticalAlign=middle;spacingTop=-1;spacingLeft=3;spacingRight=3;rotatable=1;labelPosition=right;points=[];portConstraint=eastwest;strokeColor=inherit;movable=1;resizable=1;deletable=1;editable=1;locked=0;connectable=1;" vertex="1" parent="ShEfWIWbOcaYMvMY--nj-68">
          <mxGeometry y="78" width="160" height="8" as="geometry" />
        </mxCell>
        <mxCell id="ShEfWIWbOcaYMvMY--nj-71" value="Format data: payload JSON" style="text;strokeColor=none;fillColor=none;align=left;verticalAlign=top;spacingLeft=4;spacingRight=4;overflow=hidden;rotatable=1;points=[[0,0.5],[1,0.5]];portConstraint=eastwest;whiteSpace=wrap;html=1;movable=1;resizable=1;deletable=1;editable=1;locked=0;connectable=1;" vertex="1" parent="ShEfWIWbOcaYMvMY--nj-68">
          <mxGeometry y="86" width="160" height="26" as="geometry" />
        </mxCell>
        <mxCell id="ShEfWIWbOcaYMvMY--nj-74" value="" style="group" vertex="1" connectable="0" parent="1">
          <mxGeometry x="10" y="140" width="300" height="420" as="geometry" />
        </mxCell>
        <mxCell id="ShEfWIWbOcaYMvMY--nj-1" value="Jig 1" style="html=1;whiteSpace=wrap;" vertex="1" parent="ShEfWIWbOcaYMvMY--nj-74">
          <mxGeometry x="10" y="50" width="50" height="50" as="geometry" />
        </mxCell>
        <mxCell id="ShEfWIWbOcaYMvMY--nj-2" value="MCN PSH Line 1" style="shape=umlFrame;whiteSpace=wrap;html=1;pointerEvents=0;width=100;height=30;" vertex="1" parent="ShEfWIWbOcaYMvMY--nj-74">
          <mxGeometry width="300" height="420" as="geometry" />
        </mxCell>
        <mxCell id="ShEfWIWbOcaYMvMY--nj-63" style="edgeStyle=orthogonalEdgeStyle;rounded=0;orthogonalLoop=1;jettySize=auto;html=1;exitX=0.5;exitY=1;exitDx=0;exitDy=0;" edge="1" parent="ShEfWIWbOcaYMvMY--nj-74" source="ShEfWIWbOcaYMvMY--nj-3">
          <mxGeometry relative="1" as="geometry">
            <mxPoint x="90" y="170" as="targetPoint" />
          </mxGeometry>
        </mxCell>
        <mxCell id="ShEfWIWbOcaYMvMY--nj-3" value="Jig 2" style="html=1;whiteSpace=wrap;" vertex="1" parent="ShEfWIWbOcaYMvMY--nj-74">
          <mxGeometry x="70" y="50" width="50" height="50" as="geometry" />
        </mxCell>
        <mxCell id="ShEfWIWbOcaYMvMY--nj-64" style="edgeStyle=orthogonalEdgeStyle;rounded=0;orthogonalLoop=1;jettySize=auto;html=1;exitX=0.5;exitY=1;exitDx=0;exitDy=0;" edge="1" parent="ShEfWIWbOcaYMvMY--nj-74" source="ShEfWIWbOcaYMvMY--nj-4">
          <mxGeometry relative="1" as="geometry">
            <mxPoint x="90" y="170" as="targetPoint" />
          </mxGeometry>
        </mxCell>
        <mxCell id="ShEfWIWbOcaYMvMY--nj-4" value="Jig 3" style="html=1;whiteSpace=wrap;" vertex="1" parent="ShEfWIWbOcaYMvMY--nj-74">
          <mxGeometry x="130" y="50" width="50" height="50" as="geometry" />
        </mxCell>
        <mxCell id="ShEfWIWbOcaYMvMY--nj-17" value="Jig n" style="html=1;whiteSpace=wrap;" vertex="1" parent="ShEfWIWbOcaYMvMY--nj-74">
          <mxGeometry x="240" y="50" width="50" height="50" as="geometry" />
        </mxCell>
        <mxCell id="ShEfWIWbOcaYMvMY--nj-20" value="" style="endArrow=none;dashed=1;html=1;dashPattern=1 3;strokeWidth=2;rounded=0;exitX=1;exitY=0.5;exitDx=0;exitDy=0;entryX=0;entryY=0.5;entryDx=0;entryDy=0;" edge="1" parent="ShEfWIWbOcaYMvMY--nj-74" source="ShEfWIWbOcaYMvMY--nj-4" target="ShEfWIWbOcaYMvMY--nj-17">
          <mxGeometry width="50" height="50" relative="1" as="geometry">
            <mxPoint x="490" y="50" as="sourcePoint" />
            <mxPoint x="540" as="targetPoint" />
          </mxGeometry>
        </mxCell>
        <mxCell id="ShEfWIWbOcaYMvMY--nj-58" value="PLC" style="swimlane;fontStyle=1;align=center;verticalAlign=top;childLayout=stackLayout;horizontal=1;startSize=26;horizontalStack=0;resizeParent=1;resizeParentMax=0;resizeLast=0;collapsible=1;marginBottom=0;whiteSpace=wrap;html=1;" vertex="1" parent="ShEfWIWbOcaYMvMY--nj-74">
          <mxGeometry x="10" y="172" width="160" height="164" as="geometry" />
        </mxCell>
        <mxCell id="ShEfWIWbOcaYMvMY--nj-59" value="500 address" style="text;strokeColor=none;fillColor=none;align=left;verticalAlign=top;spacingLeft=4;spacingRight=4;overflow=hidden;rotatable=0;points=[[0,0.5],[1,0.5]];portConstraint=eastwest;whiteSpace=wrap;html=1;" vertex="1" parent="ShEfWIWbOcaYMvMY--nj-58">
          <mxGeometry y="26" width="160" height="26" as="geometry" />
        </mxCell>
        <mxCell id="ShEfWIWbOcaYMvMY--nj-76" value="IP: 27.78.10.18" style="text;strokeColor=none;fillColor=none;align=left;verticalAlign=top;spacingLeft=4;spacingRight=4;overflow=hidden;rotatable=0;points=[[0,0.5],[1,0.5]];portConstraint=eastwest;whiteSpace=wrap;html=1;" vertex="1" parent="ShEfWIWbOcaYMvMY--nj-58">
          <mxGeometry y="52" width="160" height="26" as="geometry" />
        </mxCell>
        <mxCell id="ShEfWIWbOcaYMvMY--nj-60" value="" style="line;strokeWidth=1;fillColor=none;align=left;verticalAlign=middle;spacingTop=-1;spacingLeft=3;spacingRight=3;rotatable=0;labelPosition=right;points=[];portConstraint=eastwest;strokeColor=inherit;" vertex="1" parent="ShEfWIWbOcaYMvMY--nj-58">
          <mxGeometry y="78" width="160" height="8" as="geometry" />
        </mxCell>
        <mxCell id="ShEfWIWbOcaYMvMY--nj-61" value="Signal: NG-READY-BUSY" style="text;strokeColor=none;fillColor=none;align=left;verticalAlign=top;spacingLeft=4;spacingRight=4;overflow=hidden;rotatable=0;points=[[0,0.5],[1,0.5]];portConstraint=eastwest;whiteSpace=wrap;html=1;" vertex="1" parent="ShEfWIWbOcaYMvMY--nj-58">
          <mxGeometry y="86" width="160" height="26" as="geometry" />
        </mxCell>
        <mxCell id="ShEfWIWbOcaYMvMY--nj-80" value="Maximum jig: 20 jigs" style="text;strokeColor=none;fillColor=none;align=left;verticalAlign=top;spacingLeft=4;spacingRight=4;overflow=hidden;rotatable=0;points=[[0,0.5],[1,0.5]];portConstraint=eastwest;whiteSpace=wrap;html=1;" vertex="1" parent="ShEfWIWbOcaYMvMY--nj-58">
          <mxGeometry y="112" width="160" height="26" as="geometry" />
        </mxCell>
        <mxCell id="ShEfWIWbOcaYMvMY--nj-81" value="Maximum jig: 20 jigs" style="text;strokeColor=none;fillColor=none;align=left;verticalAlign=top;spacingLeft=4;spacingRight=4;overflow=hidden;rotatable=0;points=[[0,0.5],[1,0.5]];portConstraint=eastwest;whiteSpace=wrap;html=1;" vertex="1" parent="ShEfWIWbOcaYMvMY--nj-58">
          <mxGeometry y="138" width="160" height="26" as="geometry" />
        </mxCell>
        <mxCell id="ShEfWIWbOcaYMvMY--nj-62" style="edgeStyle=orthogonalEdgeStyle;rounded=0;orthogonalLoop=1;jettySize=auto;html=1;exitX=0.5;exitY=1;exitDx=0;exitDy=0;entryX=0.5;entryY=0;entryDx=0;entryDy=0;" edge="1" parent="ShEfWIWbOcaYMvMY--nj-74" source="ShEfWIWbOcaYMvMY--nj-1" target="ShEfWIWbOcaYMvMY--nj-58">
          <mxGeometry relative="1" as="geometry" />
        </mxCell>
        <mxCell id="ShEfWIWbOcaYMvMY--nj-65" style="edgeStyle=orthogonalEdgeStyle;rounded=0;orthogonalLoop=1;jettySize=auto;html=1;exitX=0.5;exitY=1;exitDx=0;exitDy=0;entryX=0.5;entryY=0;entryDx=0;entryDy=0;" edge="1" parent="ShEfWIWbOcaYMvMY--nj-74" source="ShEfWIWbOcaYMvMY--nj-17" target="ShEfWIWbOcaYMvMY--nj-58">
          <mxGeometry relative="1" as="geometry" />
        </mxCell>
        <mxCell id="ShEfWIWbOcaYMvMY--nj-79" value="" style="edgeStyle=orthogonalEdgeStyle;rounded=0;orthogonalLoop=1;jettySize=auto;html=1;entryX=-0.007;entryY=0.545;entryDx=0;entryDy=0;entryPerimeter=0;" edge="1" parent="1" source="ShEfWIWbOcaYMvMY--nj-2" target="ShEfWIWbOcaYMvMY--nj-51">
          <mxGeometry relative="1" as="geometry">
            <mxPoint x="500" y="290" as="targetPoint" />
          </mxGeometry>
        </mxCell>
      </root>
    </mxGraphModel>
  </diagram>
</mxfile>
